<svg id="Layer_1" xmlns="http://www.w3.org/2000/svg" width="1000" height="1000" viewBox="-987 365 1000 1000"><style>.st0{fill:#5596E6;} .st1{fill:#325C80;} .st2{fill:#FFFFFF;} .st3{fill:#264A60;} .st4{fill:#4178BE;}</style><circle class="st0" cx="-487" cy="865" r="500"/><path class="st1" d="M-581.9 846h265.8v38h-265.8z"/><path class="st1" d="M-485.7 1241.6h-17.1c-120.9 0-219.6-98.7-219.6-219.6V710c0-120.9 98.7-219.6 219.6-219.6h17.1c101.9 0 189.9 69 213.9 168.4l-33.5 8.2c-20.3-83.5-94.3-141.8-180.4-141.8h-17.1c-101.9 0-185.4 82.9-185.4 185.4V1022c0 101.9 82.9 185.4 185.4 185.4h17.1c88 0 164.6-62.7 181.6-149.4l34.2 7c-20.3 101.9-111.4 176.6-215.8 176.6z"/><path class="st2" d="M-449 833.4h227.8v63.3H-449zM-449 630.8h310.1v63.3H-449z"/><path class="st3" d="M-542.1 1028.9h-277.8V689.1h206.3l71.5 70.8z"/><path class="st2" d="M-778.1 795.4h196.2V827h-196.2zM-778.1 858.7h145.6v31.6h-145.6zM-778.1 922h177.2v31.6h-177.2z"/><path class="st4" d="M-542.1 760.6h-72.1v-71.5z"/><path class="st2" d="M-449 1029.6h284.8v63.3H-449z"/></svg>