<?xml version="1.0" encoding="utf-8"?>
<!-- Generator: Adobe Illustrator 18.1.1, SVG Export Plug-In . SVG Version: 6.00 Build 0)  -->
<!DOCTYPE svg PUBLIC "-//W3C//DTD SVG 1.1//EN" "http://www.w3.org/Graphics/SVG/1.1/DTD/svg11.dtd">
<svg version="1.1" id="Layer_1" xmlns="http://www.w3.org/2000/svg" xmlns:xlink="http://www.w3.org/1999/xlink" x="0px" y="0px"
	 viewBox="0 0 160 160" enable-background="new 0 0 160 160" xml:space="preserve">
<circle fill="#00B2EF" cx="80" cy="80" r="79"/>
<rect x="65" y="77" fill="#008ABF" width="42" height="6"/>
<path fill="#008ABF" d="M80.2,139.5h-2.7c-19.1,0-34.7-15.6-34.7-34.7V55.5c0-19.1,15.6-34.7,34.7-34.7h2.7
	c16.1,0,30,10.9,33.8,26.6l-5.3,1.3c-3.2-13.2-14.9-22.4-28.5-22.4h-2.7c-16.1,0-29.3,13.1-29.3,29.3v49.2
	c0,16.1,13.1,29.3,29.3,29.3h2.7c13.9,0,26-9.9,28.7-23.6l5.4,1.1C111.1,127.7,96.7,139.5,80.2,139.5z"/>
<rect x="86" y="75" fill="#FFFFFF" width="36" height="10"/>
<rect x="86" y="43" fill="#FFFFFF" width="49" height="10"/>
<g>
	<polygon fill="#00649D" points="71.3,105.9 27.4,105.9 27.4,52.2 60,52.2 71.3,63.4 	"/>
	<rect x="34" y="69" fill="#FFFFFF" width="31" height="5"/>
	<rect x="34" y="79" fill="#FFFFFF" width="23" height="5"/>
	<rect x="34" y="89" fill="#FFFFFF" width="28" height="5"/>
	<polygon fill="#008ABF" points="71.3,63.5 59.9,63.5 59.9,52.2 	"/>
</g>
<rect x="86" y="106" fill="#FFFFFF" width="45" height="10"/>
</svg>
