<?xml version="1.0" encoding="utf-8"?>
<!-- Generator: Adobe Illustrator 19.1.0, SVG Export Plug-In . SVG Version: 6.00 Build 0)  -->
<svg version="1.1" id="Layer_1" xmlns="http://www.w3.org/2000/svg" xmlns:xlink="http://www.w3.org/1999/xlink" x="0px" y="0px"
	 viewBox="0 0 20.8 31.1" style="enable-background:new 0 0 20.8 31.1;" xml:space="preserve">
<style type="text/css">
	.st0{fill:#535556;stroke:#535556;stroke-width:0.5;stroke-miterlimit:10;}
	.st1{fill:#535556;}
</style>
<path class="st0" d="M10.3,13.6c-2.7,0-4.9,2.2-4.9,4.9s2.2,4.9,4.9,4.9s4.9-2.2,4.9-4.9S13,13.6,10.3,13.6z M12,20l-1.5-1.5
	l2.9-2.9C13.6,17.3,13.1,18.9,12,20z M8.5,17l1.5,1.5l-2.9,2.9C7,19.8,7.5,18.2,8.5,17z M8.8,16.8c1-0.9,2.3-1.4,3.7-1.4
	c0.2,0,0.5,0,0.7,0l-2.9,2.9L8.8,16.8z M10.3,18.8l1.5,1.5c-1,0.9-2.3,1.4-3.7,1.4c-0.2,0-0.5,0-0.7,0L10.3,18.8z M13.3,15.1
	C13,15,12.7,15,12.5,15c-1.5,0-2.9,0.5-3.9,1.5l-1.4-1.4c0.8-0.8,1.9-1.2,3.1-1.2C11.4,13.9,12.5,14.4,13.3,15.1z M5.7,18.5
	c0-1.2,0.5-2.3,1.2-3.1l1.4,1.4c-1.2,1.2-1.7,3-1.5,4.7C6.1,20.7,5.7,19.7,5.7,18.5z M7.3,22C7.6,22,7.8,22,8.1,22h0
	c1.5,0,2.9-0.5,3.9-1.5l1.4,1.4c-0.8,0.8-1.9,1.2-3.1,1.2C9.1,23.1,8.1,22.7,7.3,22z M13.6,21.6l-1.4-1.4c1.2-1.2,1.7-3,1.5-4.7
	c0.7,0.8,1.1,1.9,1.1,3C14.9,19.7,14.4,20.8,13.6,21.6z"/>
<path class="st1" d="M12.5,0h-1H0v31.1h20.8V9.3v-1L12.5,0z M19.7,30.1H1V1h10.4v8.3h8.3V30.1z"/>
</svg>
